<svg width="200" height="250" viewBox="0 0 200 250" fill="none" xmlns="http://www.w3.org/2000/svg">
<path d="M33.1553 68.5199C42.4683 61.9655 54.059 63.2809 64.0933 67.7621C74.1275 72.2434 83.2205 79.585 92.9647 85.0152C122.741 101.609 158.63 98.9331 186.701 78.0267C189.356 85.9345 186.508 94.9797 183.379 102.598C180.251 110.217 176.685 118.474 177.973 126.922C179.621 137.733 188.473 144.214 192.059 154.226C195.464 163.73 193.637 174.891 191.025 184.797C188.413 194.704 185.023 204.685 185.467 215.126C185.911 225.566 191.834 236.606 200 236.615C187.899 239.022 175.56 241.432 163.466 238.964C151.373 236.497 139.343 228.307 133.727 214.371C130.921 207.405 129.839 199.396 126.615 192.733C121.125 181.384 110.589 176.046 100.648 172.024C90.7062 168.001 80.0674 164.126 73.0679 154.232C66.3986 144.804 64.2862 131.672 60.7527 119.783C54.8018 99.8816 44.4657 82.6211 31 70.0984" fill="#F50004"/>
<path d="M43.774 37.1777C40.5193 35.2283 36.5232 34.5892 33.2114 36.4007C29.8996 38.2122 27.6418 42.8554 28.7126 46.9647C29.1982 48.8278 30.304 50.6601 29.8732 52.5417C29.5416 53.99 28.3848 54.9462 27.2487 55.6261C26.1127 56.306 24.8699 56.8777 24.0483 58.0244C23.2268 59.1711 23.0554 61.1452 24.0817 62.0345C24.4199 62.3275 24.8425 62.4664 25.1704 62.7751C25.4498 63.0675 25.6515 63.4648 25.7472 63.9117C25.8429 64.3586 25.8279 64.8328 25.7043 65.2682C25.4311 66.1443 24.9794 66.9094 24.3969 67.4829C23.2318 68.7766 21.692 70.2572 22.0538 72.0937C22.188 72.5845 22.4122 73.0264 22.7074 73.3818C23.0025 73.7373 23.3599 73.9958 23.7493 74.1355C24.5578 74.4357 25.3967 74.5783 26.2381 74.5584L60.6184 75.9528C61.7533 76.0626 62.8945 75.9805 64.0129 75.7087C64.5565 75.581 65.0738 75.3104 65.5325 74.9136C65.9912 74.5169 66.3814 74.0026 66.6788 73.4029C67.3372 71.8339 66.9049 69.9011 66.0919 68.436C65.2788 66.9708 64.1281 65.8151 63.1773 64.4697C62.2265 63.1244 61.4485 61.4449 61.6161 59.7061C61.7503 58.3142 62.4633 57.1112 62.9751 55.8464C63.4869 54.5817 63.7842 53.0013 63.1213 51.8378C62.1873 50.1983 59.9446 50.3465 58.8825 48.8188C58.0809 47.6659 58.2357 46.0061 58.156 44.5194C57.9643 40.9432 56.0413 37.5657 53.3038 35.9974C51.9118 35.228 50.3976 34.8959 48.8863 35.0284C47.375 35.161 45.9097 35.7543 44.6116 36.7596L43.774 37.1777Z" fill="#2F2E41"/>
<path d="M22.0951 243L17 240.904L20.4799 213L28 216.094L22.0951 243Z" fill="#A0616A"/>
<path d="M21.8452 250L4 243.518L4.06781 243.245C4.34182 242.143 4.79282 241.116 5.39504 240.224C5.99727 239.332 6.73893 238.592 7.57769 238.046C8.41645 237.501 9.33587 237.16 10.2835 237.045C11.231 236.929 12.1882 237.039 13.1004 237.371L13.1008 237.371L24 241.33L21.8452 250Z" fill="#2F2E41"/>
<path d="M72.9991 243L67.5785 242.999L65 215L73 215.001L72.9991 243Z" fill="#A0616A"/>
<path d="M73.9997 250L56 249.999V249.684C56 248.413 56.1812 247.153 56.5333 245.978C56.8854 244.803 57.4014 243.736 58.052 242.836C58.7026 241.937 59.4749 241.224 60.3249 240.737C61.1749 240.25 62.086 240 63.006 240H63.0065L74 240.001L73.9997 250Z" fill="#2F2E41"/>
<path d="M64.6508 222C64.152 222 63.6696 221.774 63.2901 221.364C62.9105 220.953 62.6587 220.385 62.5798 219.76L54.0913 152.612C54.0351 152.167 53.8659 151.757 53.6096 151.446C53.3533 151.134 53.0237 150.937 52.671 150.884C52.3182 150.831 51.9615 150.926 51.655 151.153C51.3484 151.381 51.1088 151.729 50.9725 152.145L28.9806 219.282C28.7758 219.902 28.3943 220.401 27.9121 220.68C27.4299 220.959 26.8826 220.997 26.3793 220.787L18.436 217.429C17.9414 217.222 17.5255 216.788 17.2697 216.213C17.0138 215.637 16.9365 214.962 17.0528 214.318L35.0752 113.188C35.1635 112.7 35.3575 112.254 35.6354 111.9C35.9133 111.545 36.2639 111.297 36.6476 111.182L60.8176 104.067C61.1147 103.981 61.4228 103.978 61.7211 104.056C62.0193 104.135 62.3008 104.294 62.5465 104.522C78.4619 119.186 77.1174 167.097 74.1512 219.121C74.1142 219.772 73.8898 220.383 73.5205 220.838C73.1513 221.293 72.6631 221.56 72.1487 221.589L64.7428 221.998C64.7121 221.999 64.6813 222 64.6508 222Z" fill="#2F2E41"/>
<path d="M45 57C51.0751 57 56 50.732 56 43C56 35.268 51.0751 29 45 29C38.9249 29 34 35.268 34 43C34 50.732 38.9249 57 45 57Z" fill="#A0616A"/>
<path d="M45.4013 117C42.672 116.978 39.9804 116.194 37.5203 114.704L37.4357 114.655L37.4022 114.545L27.2038 81.2431L27.0098 75.4569C26.9449 73.522 27.2021 71.5913 27.765 69.7892C28.328 67.9872 29.1841 66.3536 30.2782 64.9938C31.3724 63.634 32.6804 62.5781 34.118 61.894C35.5557 61.21 37.091 60.9129 38.6252 61.022L49.4524 61.7907C52.2492 61.991 54.8802 63.5272 56.81 66.0865C58.7397 68.6458 59.823 72.0358 59.8393 75.5664C60.1205 76.2473 62.1176 81.5713 58.2037 86.5735C58.0574 87.7125 56.6884 99.5537 61.8548 106.065L62 106.248L61.8731 106.452C61.7908 106.584 55.1557 116.998 45.4013 117Z" fill="#3F3D56"/>
<path d="M61.1235 120.619C61.7449 120.316 62.3094 119.832 62.7772 119.203C63.245 118.573 63.6046 117.813 63.8309 116.976C64.0571 116.139 64.1444 115.246 64.0866 114.358C64.0288 113.471 63.8273 112.611 63.4964 111.84L74 95.4524L65.7197 94L57.0148 109.785C56.0903 110.62 55.4253 111.883 55.1458 113.335C54.8662 114.786 54.9915 116.326 55.498 117.661C56.0044 118.997 56.8568 120.036 57.8936 120.581C58.9304 121.126 60.0797 121.14 61.1235 120.619Z" fill="#A0616A"/>
<path d="M67.4013 108C66.9989 108 66.6054 107.85 66.2693 107.568L60.9719 103.145C60.5265 102.774 60.211 102.199 60.0914 101.539C59.9719 100.879 60.0575 100.186 60.3304 99.6045L64.1655 91.4016C64.373 90.9578 64.5044 90.4632 64.551 89.9502C64.5977 89.4372 64.5586 88.9174 64.4364 88.425C64.3141 87.9326 64.1113 87.4787 63.8415 87.0931C63.5716 86.7075 63.2407 86.3989 62.8706 86.1877L51.8531 79.8992C50.4981 79.1161 49.3921 77.7704 48.7163 76.0825C48.0405 74.3946 47.835 72.4646 48.1334 70.6086C48.3394 69.357 48.7694 68.1827 49.3899 67.1772C50.0105 66.1716 50.805 65.3619 51.7114 64.811C52.6179 64.2601 53.612 63.9828 54.6164 64.0008C55.6208 64.0188 56.6083 64.3315 57.5023 64.9147L74.2168 75.8186C75.3444 76.5542 76.3338 77.5913 77.1173 78.859C77.9008 80.1267 78.4598 81.5949 78.7561 83.1632C79.0525 84.7315 79.0791 86.3628 78.8342 87.9454C78.5892 89.528 78.0786 91.0246 77.3371 92.3326L69.0742 106.909C68.8835 107.247 68.6323 107.522 68.3413 107.712C68.0504 107.902 67.7282 108 67.4013 108Z" fill="#3F3D56"/>
<path d="M32.8585 40.7663C36.4782 40.4067 39.4834 35.9337 39.107 31.466C39.0646 33.3075 39.5708 35.1041 40.5295 36.5139C41.4881 37.9238 42.8323 38.8486 44.3062 39.1123C45.9666 39.3386 47.7868 38.7172 49.232 39.7534C50.8327 40.901 51.3449 43.6879 53.0124 44.6791C54.6236 45.6368 56.67 44.3307 57.4661 42.3508C58.2621 40.3709 58.0667 37.9923 57.5392 35.8796C56.7868 32.8666 55.417 30.1458 53.5628 27.9817C51.7086 25.8177 49.4332 24.2841 46.9579 23.53C44.4826 22.776 41.8917 22.8273 39.4372 23.6788C36.9827 24.5303 34.7481 26.1532 32.9508 28.3894C31.4288 30.2832 30.2203 32.6967 30.0243 35.356C29.8283 38.0154 30.8256 40.9009 32.7562 42.0956L32.8585 40.7663Z" fill="#2F2E41"/>
<path d="M6.83367 0.720952C7.42458 1.1259 7.93849 1.69063 8.33915 2.37537C8.73981 3.06011 9.01749 3.84822 9.15265 4.68415C9.28781 5.52009 9.27713 6.38352 9.1214 7.21365C8.96568 8.04378 8.66869 8.82041 8.25133 9.48882L17 27L8.52159 26.8153L1.51355 10.2147C0.676739 9.24895 0.14765 7.92648 0.026576 6.49793C-0.0944983 5.06938 0.200854 3.63399 0.856629 2.46376C1.5124 1.29353 2.48306 0.469757 3.58467 0.14855C4.68628 -0.172658 5.84229 0.0310195 6.83367 0.72097V0.720952Z" fill="#A0616A"/>
<path d="M14.5517 12.6548L26.0398 47.7387L38.0843 74.1345C38.5927 75.2488 38.8986 76.4979 38.9788 77.7873C39.059 79.0768 38.9114 80.3729 38.5473 81.5779C38.1831 82.7828 37.6119 83.8651 36.8768 84.7429C36.1416 85.6208 35.2617 86.2712 34.3035 86.6452C32.7839 87.2281 31.1531 87.0894 29.7057 86.254C28.2583 85.4187 27.0897 83.9419 26.4112 82.0904L3.19749 17.9832C3.07139 17.6349 3.00413 17.2559 3.00018 16.8714C2.99624 16.4869 3.05568 16.1057 3.17459 15.7532C3.29349 15.4007 3.46915 15.085 3.68981 14.8271C3.91047 14.5692 4.17108 14.375 4.45434 14.2573L11.9813 11.1324C12.1239 11.0731 12.271 11.0333 12.4201 11.0136C12.8646 10.9556 13.3117 11.0838 13.6955 11.3793C14.0794 11.6749 14.3795 12.122 14.5517 12.6548Z" fill="#3F3D56"/>
</svg>
