<svg width="133" height="72" viewBox="0 0 133 72" fill="none" xmlns="http://www.w3.org/2000/svg">
<path d="M9.415 24.835C10.185 24.835 10.815 24.7767 11.305 24.66C11.8183 24.52 12.2267 24.345 12.53 24.135C12.8333 23.9017 13.0433 23.6333 13.16 23.33C13.2767 23.0267 13.335 22.6883 13.335 22.315C13.335 21.5217 12.9617 20.8683 12.215 20.355C11.4683 19.8183 10.185 19.2467 8.365 18.64C7.57167 18.36 6.77833 18.045 5.985 17.695C5.19167 17.3217 4.48 16.8667 3.85 16.33C3.22 15.77 2.70667 15.105 2.31 14.335C1.91333 13.5417 1.715 12.585 1.715 11.465C1.715 10.345 1.925 9.34167 2.345 8.455C2.765 7.545 3.36 6.775 4.13 6.145C4.9 5.515 5.83333 5.03667 6.93 4.71C8.02667 4.36 9.26333 4.185 10.64 4.185C12.2733 4.185 13.685 4.36 14.875 4.71C16.065 5.06 17.045 5.445 17.815 5.865L16.24 10.17C15.5633 9.82 14.805 9.51667 13.965 9.26C13.1483 8.98 12.1567 8.84 10.99 8.84C9.68333 8.84 8.73833 9.02667 8.155 9.4C7.595 9.75 7.315 10.2983 7.315 11.045C7.315 11.4883 7.42 11.8617 7.63 12.165C7.84 12.4683 8.13167 12.7483 8.505 13.005C8.90167 13.2383 9.345 13.46 9.835 13.67C10.3483 13.8567 10.9083 14.055 11.515 14.265C12.775 14.7317 13.8717 15.1983 14.805 15.665C15.7383 16.1083 16.5083 16.6333 17.115 17.24C17.745 17.8467 18.2117 18.5583 18.515 19.375C18.8183 20.1917 18.97 21.1833 18.97 22.35C18.97 24.6133 18.1767 26.375 16.59 27.635C15.0033 28.8717 12.6117 29.49 9.415 29.49C8.34167 29.49 7.37333 29.42 6.51 29.28C5.64667 29.1633 4.87667 29.0117 4.2 28.825C3.54667 28.6383 2.975 28.44 2.485 28.23C2.01833 28.02 1.62167 27.8217 1.295 27.635L2.835 23.295C3.55833 23.6917 4.445 24.0533 5.495 24.38C6.56833 24.6833 7.875 24.835 9.415 24.835ZM30.2663 25.36C30.7796 25.36 31.2696 25.3483 31.7363 25.325C32.2029 25.3017 32.5763 25.2667 32.8563 25.22V21.265C32.6463 21.2183 32.3313 21.1717 31.9113 21.125C31.4913 21.0783 31.1063 21.055 30.7563 21.055C30.2663 21.055 29.7996 21.09 29.3563 21.16C28.9363 21.2067 28.5629 21.3117 28.2363 21.475C27.9096 21.6383 27.6529 21.86 27.4663 22.14C27.2796 22.42 27.1863 22.77 27.1863 23.19C27.1863 24.0067 27.4546 24.5783 27.9913 24.905C28.5513 25.2083 29.3096 25.36 30.2663 25.36ZM29.8463 10.1C31.3863 10.1 32.6696 10.275 33.6963 10.625C34.7229 10.975 35.5396 11.4767 36.1463 12.13C36.7763 12.7833 37.2196 13.5767 37.4763 14.51C37.7329 15.4433 37.8613 16.4817 37.8613 17.625V28.475C37.1146 28.6383 36.0763 28.825 34.7463 29.035C33.4163 29.2683 31.8063 29.385 29.9163 29.385C28.7263 29.385 27.6413 29.28 26.6613 29.07C25.7046 28.86 24.8763 28.5217 24.1763 28.055C23.4763 27.565 22.9396 26.935 22.5663 26.165C22.1929 25.395 22.0063 24.45 22.0063 23.33C22.0063 22.2567 22.2163 21.3467 22.6363 20.6C23.0796 19.8533 23.6629 19.2583 24.3863 18.815C25.1096 18.3717 25.9379 18.0567 26.8713 17.87C27.8046 17.66 28.7729 17.555 29.7762 17.555C30.4529 17.555 31.0479 17.59 31.5613 17.66C32.0979 17.7067 32.5296 17.7767 32.8563 17.87V17.38C32.8563 16.4933 32.5879 15.7817 32.0513 15.245C31.5146 14.7083 30.5813 14.44 29.2513 14.44C28.3646 14.44 27.4896 14.51 26.6263 14.65C25.7629 14.7667 25.0163 14.9417 24.3863 15.175L23.7213 10.975C24.0246 10.8817 24.3979 10.7883 24.8413 10.695C25.3079 10.5783 25.8096 10.485 26.3463 10.415C26.8829 10.3217 27.4429 10.2517 28.0263 10.205C28.6329 10.135 29.2396 10.1 29.8463 10.1ZM42.577 11.22C43.4636 10.9633 44.607 10.73 46.007 10.52C47.407 10.2867 48.877 10.17 50.417 10.17C51.9803 10.17 53.2753 10.38 54.302 10.8C55.352 11.1967 56.1803 11.7683 56.787 12.515C57.3936 13.2617 57.8253 14.1483 58.082 15.175C58.3386 16.2017 58.467 17.345 58.467 18.605V29H53.252V19.235C53.252 17.555 53.0303 16.365 52.587 15.665C52.1436 14.965 51.3153 14.615 50.102 14.615C49.7286 14.615 49.332 14.6383 48.912 14.685C48.492 14.7083 48.1186 14.7433 47.792 14.79V29H42.577V11.22ZM67.6323 19.2C67.6323 22.1167 68.8106 23.575 71.1673 23.575C71.704 23.575 72.2056 23.505 72.6723 23.365C73.139 23.225 73.5356 23.0617 73.8623 22.875V14.545C73.6056 14.4983 73.3023 14.4633 72.9523 14.44C72.6023 14.3933 72.194 14.37 71.7273 14.37C70.3506 14.37 69.324 14.825 68.6473 15.735C67.9706 16.645 67.6323 17.8 67.6323 19.2ZM79.0773 26.69C79.0773 29.7 78.3073 31.9283 76.7673 33.375C75.2506 34.845 72.894 35.58 69.6973 35.58C68.5773 35.58 67.4573 35.475 66.3373 35.265C65.2173 35.0783 64.179 34.8217 63.2223 34.495L64.1323 30.12C64.949 30.4467 65.8006 30.7033 66.6873 30.89C67.5973 31.0767 68.624 31.17 69.7673 31.17C71.2606 31.17 72.3106 30.8433 72.9173 30.19C73.5473 29.5367 73.8623 28.6967 73.8623 27.67V27.005C73.3023 27.2617 72.719 27.46 72.1123 27.6C71.529 27.7167 70.8873 27.775 70.1873 27.775C67.644 27.775 65.6956 27.0283 64.3423 25.535C62.989 24.0183 62.3123 21.9067 62.3123 19.2C62.3123 17.8467 62.5223 16.6217 62.9423 15.525C63.3623 14.405 63.969 13.4483 64.7623 12.655C65.579 11.8617 66.5706 11.255 67.7373 10.835C68.904 10.3917 70.2223 10.17 71.6923 10.17C72.3223 10.17 72.964 10.205 73.6173 10.275C74.294 10.3217 74.959 10.3917 75.6123 10.485C76.2656 10.5783 76.884 10.695 77.4673 10.835C78.074 10.9517 78.6106 11.08 79.0773 11.22V26.69ZM99.6836 28.37C98.7969 28.6267 97.6536 28.86 96.2536 29.07C94.8536 29.3033 93.3836 29.42 91.8436 29.42C90.2802 29.42 88.9736 29.21 87.9236 28.79C86.8969 28.37 86.0802 27.7867 85.4736 27.04C84.8669 26.27 84.4352 25.36 84.1786 24.31C83.9219 23.26 83.7936 22.105 83.7936 20.845V10.59H89.0086V20.215C89.0086 21.895 89.2302 23.1083 89.6736 23.855C90.1169 24.6017 90.9452 24.975 92.1586 24.975C92.5319 24.975 92.9286 24.9633 93.3486 24.94C93.7686 24.8933 94.1419 24.8467 94.4686 24.8V10.59H99.6836V28.37ZM103.704 19.935C103.704 18.3017 103.949 16.8783 104.439 15.665C104.952 14.4283 105.617 13.4017 106.434 12.585C107.251 11.7683 108.184 11.15 109.234 10.73C110.307 10.31 111.404 10.1 112.524 10.1C115.137 10.1 117.202 10.905 118.719 12.515C120.236 14.1017 120.994 16.4467 120.994 19.55C120.994 19.8533 120.982 20.1917 120.959 20.565C120.936 20.915 120.912 21.23 120.889 21.51H109.059C109.176 22.5833 109.677 23.435 110.564 24.065C111.451 24.695 112.641 25.01 114.134 25.01C115.091 25.01 116.024 24.9283 116.934 24.765C117.867 24.5783 118.626 24.3567 119.209 24.1L119.909 28.335C119.629 28.475 119.256 28.615 118.789 28.755C118.322 28.895 117.797 29.0117 117.214 29.105C116.654 29.2217 116.047 29.315 115.394 29.385C114.741 29.455 114.087 29.49 113.434 29.49C111.777 29.49 110.331 29.245 109.094 28.755C107.881 28.265 106.866 27.6 106.049 26.76C105.256 25.8967 104.661 24.8817 104.264 23.715C103.891 22.5483 103.704 21.2883 103.704 19.935ZM115.954 17.94C115.931 17.4967 115.849 17.065 115.709 16.645C115.592 16.225 115.394 15.8517 115.114 15.525C114.857 15.1983 114.519 14.93 114.099 14.72C113.702 14.51 113.201 14.405 112.594 14.405C112.011 14.405 111.509 14.51 111.089 14.72C110.669 14.9067 110.319 15.1633 110.039 15.49C109.759 15.8167 109.537 16.2017 109.374 16.645C109.234 17.065 109.129 17.4967 109.059 17.94H115.954ZM19.075 69C17.5117 66.2233 15.82 63.4817 14 60.775C12.18 58.0683 10.2433 55.5133 8.19 53.11V69H2.8V44.745H7.245C8.015 45.515 8.86667 46.46 9.8 47.58C10.7333 48.7 11.6783 49.9017 12.635 51.185C13.615 52.445 14.5833 53.7633 15.54 55.14C16.4967 56.4933 17.395 57.8 18.235 59.06V44.745H23.66V69H19.075ZM46.1251 59.76C46.1251 61.2067 45.9151 62.5367 45.4951 63.75C45.0751 64.94 44.4684 65.9667 43.6751 66.83C42.8817 67.67 41.9251 68.3233 40.8051 68.79C39.7084 69.2567 38.4717 69.49 37.0951 69.49C35.7417 69.49 34.5051 69.2567 33.3851 68.79C32.2884 68.3233 31.3434 67.67 30.5501 66.83C29.7567 65.9667 29.1384 64.94 28.6951 63.75C28.2517 62.5367 28.0301 61.2067 28.0301 59.76C28.0301 58.3133 28.2517 56.995 28.6951 55.805C29.1617 54.615 29.7917 53.6 30.5851 52.76C31.4017 51.92 32.3584 51.2667 33.4551 50.8C34.5751 50.3333 35.7884 50.1 37.0951 50.1C38.4251 50.1 39.6384 50.3333 40.7351 50.8C41.8551 51.2667 42.8117 51.92 43.6051 52.76C44.3984 53.6 45.0167 54.615 45.4601 55.805C45.9034 56.995 46.1251 58.3133 46.1251 59.76ZM40.8051 59.76C40.8051 58.15 40.4784 56.89 39.8251 55.98C39.1951 55.0467 38.2851 54.58 37.0951 54.58C35.9051 54.58 34.9834 55.0467 34.3301 55.98C33.6767 56.89 33.3501 58.15 33.3501 59.76C33.3501 61.37 33.6767 62.6533 34.3301 63.61C34.9834 64.5433 35.9051 65.01 37.0951 65.01C38.2851 65.01 39.1951 64.5433 39.8251 63.61C40.4784 62.6533 40.8051 61.37 40.8051 59.76ZM54.6913 69C53.5013 66.6667 52.288 63.9367 51.0513 60.81C49.838 57.6833 48.683 54.2767 47.5863 50.59H53.1163C53.3497 51.5 53.618 52.4917 53.9213 53.565C54.248 54.615 54.5747 55.6883 54.9013 56.785C55.2513 57.8583 55.5897 58.9083 55.9163 59.935C56.2663 60.9617 56.6047 61.895 56.9313 62.735C57.2347 61.895 57.5613 60.9617 57.9113 59.935C58.2613 58.9083 58.5997 57.8583 58.9263 56.785C59.2763 55.6883 59.603 54.615 59.9063 53.565C60.233 52.4917 60.513 51.5 60.7463 50.59H66.1363C65.0397 54.2767 63.873 57.6833 62.6363 60.81C61.423 63.9367 60.2213 66.6667 59.0313 69H54.6913ZM85.671 59.76C85.671 61.2067 85.461 62.5367 85.041 63.75C84.621 64.94 84.0143 65.9667 83.221 66.83C82.4276 67.67 81.471 68.3233 80.351 68.79C79.2543 69.2567 78.0176 69.49 76.641 69.49C75.2876 69.49 74.051 69.2567 72.931 68.79C71.8343 68.3233 70.8893 67.67 70.096 66.83C69.3026 65.9667 68.6843 64.94 68.241 63.75C67.7976 62.5367 67.576 61.2067 67.576 59.76C67.576 58.3133 67.7976 56.995 68.241 55.805C68.7076 54.615 69.3376 53.6 70.131 52.76C70.9476 51.92 71.9043 51.2667 73.001 50.8C74.121 50.3333 75.3343 50.1 76.641 50.1C77.971 50.1 79.1843 50.3333 80.281 50.8C81.401 51.2667 82.3576 51.92 83.151 52.76C83.9443 53.6 84.5626 54.615 85.006 55.805C85.4493 56.995 85.671 58.3133 85.671 59.76ZM80.351 59.76C80.351 58.15 80.0243 56.89 79.371 55.98C78.741 55.0467 77.831 54.58 76.641 54.58C75.451 54.58 74.5293 55.0467 73.876 55.98C73.2226 56.89 72.896 58.15 72.896 59.76C72.896 61.37 73.2226 62.6533 73.876 63.61C74.5293 64.5433 75.451 65.01 76.641 65.01C77.831 65.01 78.741 64.5433 79.371 63.61C80.0243 62.6533 80.351 61.37 80.351 59.76Z" fill="#950000"/>
<path d="M111.583 42.2971C111.375 41.9955 110.945 41.9093 110.624 42.1045C110.542 42.1544 110.472 42.22 110.419 42.2971C110.033 42.9438 101 58.1831 101 62.6177C101 67.7994 105.477 72 111 72C116.523 72 121 67.7994 121 62.6177C121 58.1831 111.967 42.9438 111.583 42.2971Z" fill="#D32F2F"/>
</svg>
